<mxfile host="app.diagrams.net" modified="2024-04-16T06:01:43.907Z" agent="Mozilla/5.0 (Windows NT 10.0; Win64; x64) AppleWebKit/537.36 (KHTML, like Gecko) Chrome/123.0.0.0 Safari/537.36 Edg/123.0.0.0" etag="YiLwoFpYo8MSzN93ijVy" version="24.2.5" type="github">
  <diagram name="第 1 页" id="mVWM5BbssDuCQnt5jiCh">
    <mxGraphModel dx="906" dy="605" grid="1" gridSize="10" guides="1" tooltips="1" connect="1" arrows="1" fold="1" page="1" pageScale="1" pageWidth="827" pageHeight="1169" background="none" math="0" shadow="0">
      <root>
        <mxCell id="0" />
        <mxCell id="1" parent="0" />
        <mxCell id="cqRzxX2yhuxRFkGYx0S6-6" value="" style="edgeStyle=orthogonalEdgeStyle;rounded=0;orthogonalLoop=1;jettySize=auto;html=1;strokeWidth=2;" edge="1" parent="1" source="cqRzxX2yhuxRFkGYx0S6-1" target="cqRzxX2yhuxRFkGYx0S6-2">
          <mxGeometry relative="1" as="geometry" />
        </mxCell>
        <mxCell id="cqRzxX2yhuxRFkGYx0S6-1" value="&lt;font style=&quot;font-size: 16px;&quot;&gt;image&lt;/font&gt;" style="whiteSpace=wrap;html=1;aspect=fixed;fillColor=#d5e8d4;strokeColor=#82b366;" vertex="1" parent="1">
          <mxGeometry x="80" y="200" width="80" height="80" as="geometry" />
        </mxCell>
        <mxCell id="cqRzxX2yhuxRFkGYx0S6-8" style="edgeStyle=orthogonalEdgeStyle;rounded=0;orthogonalLoop=1;jettySize=auto;html=1;exitX=1;exitY=0.5;exitDx=0;exitDy=0;entryX=0;entryY=0.5;entryDx=0;entryDy=0;strokeWidth=2;" edge="1" parent="1" source="cqRzxX2yhuxRFkGYx0S6-2" target="cqRzxX2yhuxRFkGYx0S6-3">
          <mxGeometry relative="1" as="geometry" />
        </mxCell>
        <mxCell id="cqRzxX2yhuxRFkGYx0S6-2" value="&lt;font style=&quot;font-size: 16px;&quot;&gt;conv&lt;/font&gt;" style="whiteSpace=wrap;html=1;aspect=fixed;fillColor=#d5e8d4;strokeColor=#82b366;" vertex="1" parent="1">
          <mxGeometry x="240" y="200" width="80" height="80" as="geometry" />
        </mxCell>
        <mxCell id="cqRzxX2yhuxRFkGYx0S6-9" style="edgeStyle=orthogonalEdgeStyle;rounded=0;orthogonalLoop=1;jettySize=auto;html=1;exitX=1;exitY=0.5;exitDx=0;exitDy=0;strokeWidth=2;" edge="1" parent="1" source="cqRzxX2yhuxRFkGYx0S6-3" target="cqRzxX2yhuxRFkGYx0S6-4">
          <mxGeometry relative="1" as="geometry" />
        </mxCell>
        <mxCell id="cqRzxX2yhuxRFkGYx0S6-3" value="&lt;font style=&quot;font-size: 16px;&quot;&gt;fc&lt;/font&gt;" style="whiteSpace=wrap;html=1;aspect=fixed;fillColor=#d5e8d4;strokeColor=#82b366;" vertex="1" parent="1">
          <mxGeometry x="400" y="200" width="80" height="80" as="geometry" />
        </mxCell>
        <mxCell id="cqRzxX2yhuxRFkGYx0S6-4" value="&lt;font style=&quot;font-size: 16px;&quot;&gt;score&lt;/font&gt;" style="whiteSpace=wrap;html=1;aspect=fixed;fillColor=#d5e8d4;strokeColor=#82b366;" vertex="1" parent="1">
          <mxGeometry x="560" y="200" width="80" height="80" as="geometry" />
        </mxCell>
      </root>
    </mxGraphModel>
  </diagram>
</mxfile>
